<svg width="150" height="40" viewBox="0 0 150 40" fill="none" xmlns="http://www.w3.org/2000/svg">
<path fill-rule="evenodd" clip-rule="evenodd" d="M57.447 26.4736C58.1986 26.4736 58.8036 26.3212 59.2606 26.0164C59.7178 25.7116 60.0733 25.3306 60.3276 24.8734C60.5814 24.4161 60.7491 23.9236 60.8305 23.3949C60.9116 22.8668 60.9525 22.379 60.9525 21.9317C60.9525 21.4851 60.9116 20.9973 60.8305 20.4686C60.7491 19.9405 60.5814 19.4475 60.3276 18.9903C60.0733 18.533 59.7178 18.152 59.2606 17.8472C58.8036 17.5423 58.1986 17.39 57.447 17.39C56.695 17.39 56.0906 17.5423 55.6334 17.8472C55.1761 18.152 54.8255 18.533 54.5818 18.9903C54.3379 19.4475 54.175 19.9405 54.094 20.4686C54.0125 20.9973 53.972 21.4851 53.972 21.9317C53.972 22.379 54.0125 22.8668 54.094 23.3949C54.175 23.9236 54.3379 24.4161 54.5818 24.8734C54.8255 25.3306 55.1761 25.7116 55.6334 26.0164C56.0906 26.3212 56.695 26.4736 57.447 26.4736ZM60.9525 15.9837V9.06836H64.5799V21.9014C64.5799 22.9582 64.4779 23.8827 64.2749 24.6752C64.0716 25.4677 63.8025 26.1535 63.4672 26.7327C63.1319 27.3119 62.7509 27.7897 62.3242 28.1655C61.8975 28.5417 61.4602 28.8513 61.0133 29.0952C59.9565 29.6438 58.7678 29.9282 57.447 29.9486C56.0852 29.9282 54.8759 29.6438 53.8196 29.0952C53.3725 28.8513 52.9304 28.5417 52.4937 28.1655C52.0564 27.7897 51.6706 27.3171 51.3353 26.7481C51 26.1793 50.7304 25.4983 50.5274 24.7057C50.3242 23.9132 50.2227 22.9887 50.2227 21.9317C50.2227 20.8753 50.3189 19.9505 50.5123 19.1579C50.7052 18.3654 50.9589 17.6796 51.2743 17.1004C51.5892 16.5212 51.9449 16.0388 52.3412 15.6524C52.7374 15.2666 53.149 14.9513 53.5757 14.7076C54.5512 14.1388 55.6685 13.834 56.9289 13.7931C57.5585 13.854 58.1681 14.0065 58.7576 14.2503C59.2654 14.4741 59.7837 14.8142 60.3124 15.2714C60.6645 15.5762 60.8778 15.8137 60.9525 15.9837ZM77.0776 19.9505C76.9756 19.6255 76.8489 19.3004 76.6966 18.9751C76.5441 18.6502 76.3355 18.3554 76.0717 18.0911C75.8072 17.8271 75.4925 17.6185 75.1266 17.4662C74.7608 17.3138 74.3341 17.2375 73.8465 17.2375C73.3587 17.2375 72.932 17.3138 72.5662 17.4662C72.2004 17.6185 71.885 17.8271 71.6212 18.0911C71.3569 18.3554 71.1436 18.6502 70.9811 18.9751C70.8182 19.3004 70.6963 19.6255 70.6153 19.9505H77.0776ZM80.9184 19.9505C80.9589 20.2552 80.9946 20.5706 81.0249 20.8955C81.0555 21.2208 81.0706 21.5661 81.0706 21.9317V22.4804H70.4019C70.4424 22.8263 70.4933 23.1767 70.5544 23.5322C70.6153 23.8878 70.7168 24.2385 70.8591 24.5838C71.0825 25.1125 71.428 25.5797 71.8956 25.9859C72.3628 26.3926 73.0129 26.5956 73.8465 26.5956C74.6794 26.5956 75.3296 26.3926 75.7972 25.9859C76.2645 25.5797 76.6097 25.1125 76.8337 24.5838H80.7964C80.6336 25.2953 80.4048 25.915 80.1106 26.4431C79.8157 26.9718 79.4903 27.4291 79.1351 27.8148C78.7794 28.2012 78.3982 28.5212 77.9921 28.775C77.5853 29.0293 77.1889 29.2375 76.8031 29.3999C75.8683 29.7658 74.8828 29.9486 73.8465 29.9486C72.4848 29.9282 71.2755 29.6438 70.2191 29.0952C69.7718 28.8513 69.3297 28.5417 68.8931 28.1655C68.4558 27.7897 68.07 27.3171 67.7347 26.7481C67.3994 26.1793 67.1299 25.4983 66.927 24.7057C66.7236 23.9132 66.6222 22.9887 66.6222 21.9317C66.6222 20.8753 66.7236 19.9505 66.927 19.1579C67.1299 18.3654 67.3994 17.6796 67.7347 17.1004C68.07 16.5212 68.4558 16.0388 68.8931 15.6524C69.3297 15.2666 69.7718 14.9513 70.2191 14.7076C71.2755 14.1388 72.4848 13.834 73.8465 13.7931C74.9638 13.834 76.0106 14.0673 76.9862 14.494C77.3923 14.6771 77.8039 14.9162 78.2206 15.2105C78.6369 15.5053 79.0231 15.871 79.379 16.3079C79.7342 16.7451 80.0496 17.2633 80.324 17.8624C80.5982 18.4622 80.7964 19.1579 80.9184 19.9505ZM87.6544 29.6438H90.154H92.6535L97.6831 14.1893H93.9337L90.154 25.7421L86.3743 14.1893H82.6249L87.6544 29.6438ZM103.048 17.8167V24.6143C103.109 24.858 103.22 25.0819 103.383 25.2849C103.525 25.4478 103.723 25.6003 103.977 25.7422C104.231 25.8845 104.561 25.9555 104.968 25.9555H107.285V29.6438H103.566C102.773 29.5628 102.062 29.3391 101.432 28.9732C100.903 28.6685 100.421 28.2164 99.9844 27.6169C99.5471 27.0175 99.329 26.1892 99.329 25.1324V12.0921H103.048V14.1893H106.553V17.8167H103.048ZM109.693 16.2165C109.246 16.816 109.022 17.6443 109.022 18.7007V29.6439H112.772V19.2188C112.832 18.9751 112.944 18.7516 113.107 18.5482C113.249 18.3859 113.447 18.2335 113.701 18.091C113.955 17.9491 114.285 17.8776 114.692 17.8776H117.557V14.1893H113.29C112.497 14.2707 111.786 14.4941 111.156 14.8599C110.627 15.1647 110.139 15.6171 109.693 16.2165ZM126.397 17.3899C125.645 17.3899 125.04 17.5424 124.583 17.8472C124.126 18.1519 123.775 18.533 123.531 18.9902C123.288 19.4474 123.125 19.9404 123.044 20.4687C122.962 20.9974 122.922 21.485 122.922 21.9319C122.922 22.3791 122.962 22.8667 123.044 23.395C123.125 23.9237 123.288 24.4161 123.531 24.8733C123.775 25.3306 124.126 25.7116 124.583 26.0163C125.04 26.3213 125.645 26.4736 126.397 26.4736C127.148 26.4736 127.753 26.3213 128.21 26.0163C128.668 25.7116 129.018 25.3306 129.262 24.8733C129.506 24.4161 129.668 23.9237 129.75 23.395C129.831 22.8667 129.872 22.3791 129.872 21.9319C129.872 21.485 129.831 20.9974 129.75 20.4687C129.668 19.9404 129.506 19.4474 129.262 18.9902C129.018 18.533 128.668 18.1519 128.21 17.8472C127.753 17.5424 127.148 17.3899 126.397 17.3899ZM119.172 21.9319C119.172 20.8755 119.274 19.9504 119.477 19.1578C119.68 18.3653 119.95 17.6795 120.285 17.1003C120.62 16.5211 121.006 16.0388 121.443 15.6524C121.88 15.2666 122.322 14.9514 122.769 14.7075C123.826 14.1387 125.035 13.834 126.397 13.793C127.738 13.834 128.937 14.1387 129.994 14.7075C130.44 14.9514 130.882 15.2666 131.32 15.6524C131.756 16.0388 132.143 16.5211 132.478 17.1003C132.813 17.6795 133.088 18.3653 133.301 19.1578C133.514 19.9504 133.621 20.8755 133.621 21.9319C133.621 22.9887 133.514 23.9131 133.301 24.7057C133.088 25.4982 132.813 26.1794 132.478 26.748C132.143 27.3172 131.756 27.7896 131.32 28.1655C130.882 28.5417 130.44 28.8512 129.994 29.0951C128.937 29.6438 127.738 29.9282 126.397 29.9485C125.035 29.9282 123.826 29.6438 122.769 29.0951C122.322 28.8512 121.88 28.5417 121.443 28.1655C121.006 27.7896 120.62 27.3172 120.285 26.748C119.95 26.1794 119.68 25.4982 119.477 24.7057C119.274 23.9131 119.172 22.9887 119.172 21.9319ZM142.903 13.8236C142.527 13.8034 142.308 13.793 142.248 13.793C142.166 13.793 141.943 13.8034 141.577 13.8236C141.211 13.8439 140.774 13.9302 140.266 14.0826C139.758 14.2351 139.219 14.4742 138.651 14.7989C138.081 15.1243 137.553 15.5915 137.066 16.2012C136.578 16.8107 136.176 17.5781 135.861 18.5026C135.546 19.4275 135.389 20.5705 135.389 21.9319V29.6438H139.108V21.9319C139.108 21.485 139.148 21.0277 139.23 20.5601C139.311 20.0929 139.463 19.6662 139.687 19.2798C139.91 18.894 140.225 18.5741 140.632 18.3196C141.038 18.0657 141.577 17.9386 142.248 17.9386C142.918 17.9386 143.456 18.0657 143.863 18.3196C144.269 18.5741 144.584 18.894 144.808 19.2798C145.031 19.6662 145.184 20.0929 145.265 20.5601C145.346 21.0277 145.387 21.485 145.387 21.9319V29.6438H149.106V21.9319C149.106 20.5705 148.948 19.4275 148.634 18.5026C148.318 17.5781 147.917 16.8107 147.43 16.2012C146.942 15.5915 146.413 15.1243 145.844 14.7989C145.275 14.4742 144.737 14.2351 144.229 14.0826C143.721 13.9302 143.279 13.8439 142.903 13.8236Z" fill="white"/>
<path fill-rule="evenodd" clip-rule="evenodd" d="M7.51843 32.9318L0.463095 21.8242C-0.146238 20.8693 -0.154773 19.6497 0.440538 18.6858L9.53754 3.96127C10.1234 3.01298 11.1598 2.43748 12.2742 2.44143L25.4073 2.48839C25.4369 2.48839 25.4661 2.4893 25.4951 2.49083C26.7756 2.55667 27.4779 4.02224 26.7717 5.09276L17.6573 18.9044C17.3147 19.6091 16.5182 20.0514 15.6498 19.8527C15.0069 19.7058 14.4869 19.1809 14.3433 18.5374C14.2449 18.0957 14.3128 17.6748 14.4945 17.3227C14.4948 17.3221 14.4949 17.3216 14.4951 17.3212C14.4952 17.3206 14.4954 17.3201 14.4957 17.3196L14.4979 17.3163C14.5521 17.2126 14.6161 17.1148 14.6887 17.0243L16.0765 14.9027C16.4877 14.291 16.1046 13.4612 15.3721 13.3771L12.0364 13.1238C11.4174 13.0766 10.8059 13.2866 10.3462 13.7042C9.74238 14.4105 7.06089 18.7361 5.83674 20.7638C5.4417 21.4182 5.48925 22.2354 5.93215 22.8585L5.91691 22.8658L10.1646 29.5365L10.9614 30.8021C11.0443 30.9088 11.1168 31.0237 11.1775 31.1456L11.2073 31.1928L11.2052 31.2035C11.3616 31.5437 11.4274 31.9342 11.3698 32.3441C11.2488 33.2031 10.5623 33.9149 9.70641 34.0578C8.75142 34.2176 7.89335 33.7125 7.51843 32.9318ZM31.0559 6.21837L38.1606 17.2946C38.7742 18.2468 38.7882 19.4664 38.1972 20.4327L29.166 35.1978C28.5844 36.1485 27.5505 36.7289 26.436 36.7298L13.3029 36.7417C13.2734 36.7417 13.2441 36.7411 13.2152 36.7395C11.9343 36.6795 11.2256 35.217 11.927 34.1434L20.9795 20.2909C21.3191 19.585 22.1134 19.139 22.9828 19.3338C23.6262 19.478 24.1487 20.0004 24.295 20.6433C24.3956 21.0847 24.3294 21.5056 24.1493 21.8589L24.1484 21.8617L24.1459 21.865C24.0923 21.9693 24.0289 22.0671 23.9563 22.1579L22.5783 24.2859C22.1698 24.8995 22.5566 25.7274 23.2894 25.8081L26.6259 26.0468C27.2456 26.091 27.8559 25.8783 28.314 25.4588C28.9145 24.7498 31.5765 20.4122 32.7915 18.3791C33.1838 17.7228 33.1329 16.9059 32.687 16.285L32.7022 16.2774L28.4247 9.62563L27.6224 8.36368C27.5389 8.2573 27.4657 8.14269 27.4045 8.02106L27.3746 7.97412L27.3767 7.96345C27.2188 7.62389 27.1515 7.23372 27.2072 6.82343C27.324 5.96384 28.0074 5.24935 28.8627 5.10243C29.8171 4.93843 30.6773 5.43956 31.0559 6.21837Z" fill="white"/>
</svg>
